<mxfile host="app.diagrams.net" modified="2025-01-30T10:00:00.000Z" agent="5.0" etag="xxx" version="24.0.0" type="device">
  <diagram name="CloudVPS Payment Flow" id="payment-flow">
    <mxGraphModel dx="1422" dy="794" grid="1" gridSize="10" guides="1" tooltips="1" connect="1" arrows="1" fold="1" page="1" pageScale="1" pageWidth="1169" pageHeight="827" math="0" shadow="0">
      <root>
        <mxCell id="0" />
        <mxCell id="1" parent="0" />
        
        <!-- Title -->
        <mxCell id="2" value="CloudVPS Payment Flow - Complete Integration" style="text;html=1;strokeColor=none;fillColor=none;align=center;verticalAlign=middle;whiteSpace=wrap;rounded=0;fontSize=20;fontStyle=1;" vertex="1" parent="1">
          <mxGeometry x="300" y="20" width="600" height="30" as="geometry" />
        </mxCell>
        
        <!-- User/Browser -->
        <mxCell id="3" value="👤 User&#xa;(Browser)" style="rounded=1;whiteSpace=wrap;html=1;fillColor=#e1d5e7;strokeColor=#9673a6;fontSize=12;fontStyle=1;" vertex="1" parent="1">
          <mxGeometry x="50" y="100" width="100" height="60" as="geometry" />
        </mxCell>
        
        <!-- CloudVPS Frontend -->
        <mxCell id="4" value="🌐 CloudVPS Frontend&#xa;:3000&#xa;(Next.js)" style="rounded=1;whiteSpace=wrap;html=1;fillColor=#d5e8d4;strokeColor=#82b366;fontSize=12;fontStyle=1;" vertex="1" parent="1">
          <mxGeometry x="200" y="100" width="140" height="60" as="geometry" />
        </mxCell>
        
        <!-- Middleware -->
        <mxCell id="5" value="⚙️ Systrix Middleware&#xa;:3005&#xa;(Next.js API)" style="rounded=1;whiteSpace=wrap;html=1;fillColor=#fff2cc;strokeColor=#d6b656;fontSize=12;fontStyle=1;" vertex="1" parent="1">
          <mxGeometry x="400" y="100" width="140" height="60" as="geometry" />
        </mxCell>
        
        <!-- HostBill -->
        <mxCell id="6" value="🏢 HostBill&#xa;(Billing System)" style="rounded=1;whiteSpace=wrap;html=1;fillColor=#f8cecc;strokeColor=#b85450;fontSize=12;fontStyle=1;" vertex="1" parent="1">
          <mxGeometry x="600" y="100" width="120" height="60" as="geometry" />
        </mxCell>
        
        <!-- Comgate -->
        <mxCell id="7" value="💳 Comgate&#xa;(Payment Gateway)" style="rounded=1;whiteSpace=wrap;html=1;fillColor=#dae8fc;strokeColor=#6c8ebf;fontSize=12;fontStyle=1;" vertex="1" parent="1">
          <mxGeometry x="800" y="100" width="120" height="60" as="geometry" />
        </mxCell>
        
        <!-- Step 1: Order Creation -->
        <mxCell id="8" value="📋 STEP 1: ORDER CREATION" style="text;html=1;strokeColor=none;fillColor=#e1d5e7;align=center;verticalAlign=middle;whiteSpace=wrap;rounded=1;fontSize=14;fontStyle=1;" vertex="1" parent="1">
          <mxGeometry x="50" y="200" width="870" height="30" as="geometry" />
        </mxCell>
        
        <!-- Step 1 Arrows -->
        <mxCell id="9" value="1. Fill Order Form" style="edgeStyle=orthogonalEdgeStyle;rounded=0;orthogonalLoop=1;jettySize=auto;html=1;fontSize=10;" edge="1" parent="1" source="3" target="4">
          <mxGeometry relative="1" as="geometry" />
        </mxCell>
        
        <mxCell id="10" value="2. POST /api/orders/create" style="edgeStyle=orthogonalEdgeStyle;rounded=0;orthogonalLoop=1;jettySize=auto;html=1;fontSize=10;" edge="1" parent="1" source="4" target="5">
          <mxGeometry relative="1" as="geometry" />
        </mxCell>
        
        <mxCell id="11" value="3. Create Client &amp; Order" style="edgeStyle=orthogonalEdgeStyle;rounded=0;orthogonalLoop=1;jettySize=auto;html=1;fontSize=10;" edge="1" parent="1" source="5" target="6">
          <mxGeometry relative="1" as="geometry" />
        </mxCell>
        
        <mxCell id="12" value="4. Return Order ID &amp; Invoice ID" style="edgeStyle=orthogonalEdgeStyle;rounded=0;orthogonalLoop=1;jettySize=auto;html=1;fontSize=10;dashed=1;" edge="1" parent="1" source="6" target="5">
          <mxGeometry relative="1" as="geometry" />
        </mxCell>
        
        <!-- Step 2: Payment Initialization -->
        <mxCell id="13" value="💳 STEP 2: PAYMENT INITIALIZATION" style="text;html=1;strokeColor=none;fillColor=#fff2cc;align=center;verticalAlign=middle;whiteSpace=wrap;rounded=1;fontSize=14;fontStyle=1;" vertex="1" parent="1">
          <mxGeometry x="50" y="300" width="870" height="30" as="geometry" />
        </mxCell>
        
        <mxCell id="14" value="1. Select Payment Method" style="edgeStyle=orthogonalEdgeStyle;rounded=0;orthogonalLoop=1;jettySize=auto;html=1;fontSize=10;" edge="1" parent="1" source="3" target="4">
          <mxGeometry relative="1" as="geometry">
            <mxPoint x="100" y="350" as="sourcePoint" />
            <mxPoint x="270" y="350" as="targetPoint" />
          </mxGeometry>
        </mxCell>
        
        <mxCell id="15" value="2. POST /api/payments/initialize" style="edgeStyle=orthogonalEdgeStyle;rounded=0;orthogonalLoop=1;jettySize=auto;html=1;fontSize=10;" edge="1" parent="1" source="4" target="5">
          <mxGeometry relative="1" as="geometry">
            <mxPoint x="270" y="370" as="sourcePoint" />
            <mxPoint x="470" y="370" as="targetPoint" />
          </mxGeometry>
        </mxCell>
        
        <mxCell id="16" value="3. Initialize Comgate Payment" style="edgeStyle=orthogonalEdgeStyle;rounded=0;orthogonalLoop=1;jettySize=auto;html=1;fontSize=10;" edge="1" parent="1" source="5" target="7">
          <mxGeometry relative="1" as="geometry">
            <mxPoint x="470" y="390" as="sourcePoint" />
            <mxPoint x="860" y="390" as="targetPoint" />
          </mxGeometry>
        </mxCell>
        
        <mxCell id="17" value="4. Return Transaction ID &amp; Payment URL" style="edgeStyle=orthogonalEdgeStyle;rounded=0;orthogonalLoop=1;jettySize=auto;html=1;fontSize=10;dashed=1;" edge="1" parent="1" source="7" target="5">
          <mxGeometry relative="1" as="geometry">
            <mxPoint x="860" y="410" as="sourcePoint" />
            <mxPoint x="470" y="410" as="targetPoint" />
          </mxGeometry>
        </mxCell>
        
        <!-- Step 3: Payment Processing -->
        <mxCell id="18" value="🔄 STEP 3: PAYMENT PROCESSING" style="text;html=1;strokeColor=none;fillColor=#dae8fc;align=center;verticalAlign=middle;whiteSpace=wrap;rounded=1;fontSize=14;fontStyle=1;" vertex="1" parent="1">
          <mxGeometry x="50" y="450" width="870" height="30" as="geometry" />
        </mxCell>
        
        <mxCell id="19" value="1. Redirect to Comgate" style="edgeStyle=orthogonalEdgeStyle;rounded=0;orthogonalLoop=1;jettySize=auto;html=1;fontSize=10;" edge="1" parent="1" source="3" target="7">
          <mxGeometry relative="1" as="geometry">
            <mxPoint x="100" y="500" as="sourcePoint" />
            <mxPoint x="860" y="500" as="targetPoint" />
          </mxGeometry>
        </mxCell>
        
        <mxCell id="20" value="2. Complete Payment" style="edgeStyle=orthogonalEdgeStyle;rounded=0;orthogonalLoop=1;jettySize=auto;html=1;fontSize=10;" edge="1" parent="1" source="3" target="7">
          <mxGeometry relative="1" as="geometry">
            <mxPoint x="100" y="520" as="sourcePoint" />
            <mxPoint x="860" y="520" as="targetPoint" />
          </mxGeometry>
        </mxCell>
        
        <!-- Step 4: Callback Processing -->
        <mxCell id="21" value="🔔 STEP 4: CALLBACK PROCESSING &amp; INVOICE UPDATE" style="text;html=1;strokeColor=none;fillColor=#f8cecc;align=center;verticalAlign=middle;whiteSpace=wrap;rounded=1;fontSize=14;fontStyle=1;" vertex="1" parent="1">
          <mxGeometry x="50" y="570" width="870" height="30" as="geometry" />
        </mxCell>
        
        <mxCell id="22" value="1. POST /api/payments/comgate/callback" style="edgeStyle=orthogonalEdgeStyle;rounded=0;orthogonalLoop=1;jettySize=auto;html=1;fontSize=10;" edge="1" parent="1" source="7" target="5">
          <mxGeometry relative="1" as="geometry">
            <mxPoint x="860" y="620" as="sourcePoint" />
            <mxPoint x="470" y="620" as="targetPoint" />
          </mxGeometry>
        </mxCell>
        
        <mxCell id="23" value="2. POST /api/invoices/mark-paid" style="edgeStyle=orthogonalEdgeStyle;rounded=0;orthogonalLoop=1;jettySize=auto;html=1;fontSize=10;" edge="1" parent="1">
          <mxGeometry relative="1" as="geometry">
            <mxPoint x="470" y="640" as="sourcePoint" />
            <mxPoint x="470" y="660" as="targetPoint" />
          </mxGeometry>
        </mxCell>
        
        <mxCell id="24" value="3. addInvoicePayment API" style="edgeStyle=orthogonalEdgeStyle;rounded=0;orthogonalLoop=1;jettySize=auto;html=1;fontSize=10;" edge="1" parent="1" source="5" target="6">
          <mxGeometry relative="1" as="geometry">
            <mxPoint x="470" y="680" as="sourcePoint" />
            <mxPoint x="660" y="680" as="targetPoint" />
          </mxGeometry>
        </mxCell>
        
        <mxCell id="25" value="4. Invoice Marked as PAID ✅" style="edgeStyle=orthogonalEdgeStyle;rounded=0;orthogonalLoop=1;jettySize=auto;html=1;fontSize=10;dashed=1;" edge="1" parent="1" source="6" target="5">
          <mxGeometry relative="1" as="geometry">
            <mxPoint x="660" y="700" as="sourcePoint" />
            <mxPoint x="470" y="700" as="targetPoint" />
          </mxGeometry>
        </mxCell>
        
        <!-- Key Features -->
        <mxCell id="26" value="✨ KEY FEATURES" style="text;html=1;strokeColor=none;fillColor=#e1d5e7;align=center;verticalAlign=middle;whiteSpace=wrap;rounded=1;fontSize=14;fontStyle=1;" vertex="1" parent="1">
          <mxGeometry x="50" y="750" width="200" height="30" as="geometry" />
        </mxCell>
        
        <mxCell id="27" value="• Real Comgate API Integration&#xa;• HostBill Billing System&#xa;• Automatic Invoice Updates&#xa;• Multi-Payment Support&#xa;• Complete Workflow Testing" style="text;html=1;strokeColor=none;fillColor=none;align=left;verticalAlign=top;whiteSpace=wrap;rounded=0;fontSize=10;" vertex="1" parent="1">
          <mxGeometry x="270" y="750" width="200" height="80" as="geometry" />
        </mxCell>
        
        <!-- Test URLs -->
        <mxCell id="28" value="🌐 TEST URLS" style="text;html=1;strokeColor=none;fillColor=#d5e8d4;align=center;verticalAlign=middle;whiteSpace=wrap;rounded=1;fontSize=14;fontStyle=1;" vertex="1" parent="1">
          <mxGeometry x="500" y="750" width="200" height="30" as="geometry" />
        </mxCell>
        
        <mxCell id="29" value="• localhost:3000/middleware-order-test&#xa;• localhost:3000/payment-flow-test&#xa;• localhost:3005/dashboard" style="text;html=1;strokeColor=none;fillColor=none;align=left;verticalAlign=top;whiteSpace=wrap;rounded=0;fontSize=10;" vertex="1" parent="1">
          <mxGeometry x="720" y="750" width="200" height="60" as="geometry" />
        </mxCell>
        
      </root>
    </mxGraphModel>
  </diagram>
</mxfile>
